<svg xmlns="http://www.w3.org/2000/svg"  viewBox="0 0 100 100" width="100px" height="100px" baseProfile="basic"><path d="M22.5,93C16.1590004,93,11,87.8410034,11,81.5v-59C11,16.1590004,16.1590004,11,22.5,11h59	C87.8410034,11,93,16.1590004,93,22.5v59C93,87.8410034,87.8410034,93,81.5,93H22.5z" opacity=".35"/><path fill="#F2F2F2" d="M20.5,91C14.1590004,91,9,85.8410034,9,79.5v-59C9,14.1590004,14.1590004,9,20.5,9h59	C85.8410034,9,91,14.1590004,91,20.5v59C91,85.8410034,85.8410034,91,79.5,91H20.5z"/><path fill="#96C362" d="M79.5,84.5h-59c-2.7609997,0-5-2.2389984-5-5v-59c0-2.7609997,2.2390003-5,5-5h59	c2.7610016,0,5,2.2390003,5,5v59C84.5,82.2610016,82.2610016,84.5,79.5,84.5z"/><path fill="#40396E" d="M79.5,86h-59c-3.5839996,0-6.5-2.9160004-6.5-6.5v-59c0-3.5839996,2.9160004-6.5,6.5-6.5h59	c3.5839996,0,6.5,2.9160004,6.5,6.5v59C86,83.0839996,83.0839996,86,79.5,86z M20.5,17c-1.9300003,0-3.5,1.5699997-3.5,3.5v59	c0,1.9300003,1.5699997,3.5,3.5,3.5h59c1.9300003,0,3.5-1.5699997,3.5-3.5v-59c0-1.9300003-1.5699997-3.5-3.5-3.5H20.5z"/><path fill="#285E2C" d="M42.0169983,65c-0.7669983,0-1.5340004-0.2919998-2.1199989-0.8769989l-10.0170002-10	c-1.1720009-1.1699982-1.1739998-3.0699997-0.0030003-4.243c1.1700001-1.1730003,3.0690002-1.1749992,4.243-0.0029984	l7.8959999,7.882l23.8810043-23.8799973c1.1709976-1.1720009,3.0709991-1.1720009,4.2419968,0	c1.1719971,1.1710014,1.1719971,3.0709991,0,4.2420006l-26,25.9999962C43.5530014,64.7070007,42.7849998,65,42.0169983,65z"/></svg>